<svg width="66" height="27" viewBox="0 0 66 27" fill="none" xmlns="http://www.w3.org/2000/svg">
<path fill-rule="evenodd" clip-rule="evenodd" d="M10.7496 9.17476L10.4872 8.70214L9.56782 7.14754L8.9115 5.93079L8.58331 5.45817L8.51819 5.32276C8.45243 5.25505 8.38667 5.18801 8.3209 5.0526C8.18938 4.84947 8.0585 4.71472 7.86186 4.5793C7.53305 4.30914 7.13913 4.10668 6.68008 4.03897H6.28615C6.08886 4.03897 5.89222 4.03897 5.62982 4.10668C5.4983 4.17372 5.36742 4.24143 5.17014 4.30914C4.84197 4.51227 4.51381 4.78243 4.2514 5.18801C4.11988 5.39046 4.05476 5.59293 3.989 5.79604C3.92324 5.99851 3.85748 6.20163 3.85748 6.40408V7.01213C3.92324 7.28229 3.989 7.48541 4.05476 7.68787C4.11988 7.89099 4.2514 8.09344 4.38293 8.22888C4.51381 8.36361 4.64533 8.56678 4.84197 8.63442C5.03926 8.76922 5.2359 8.83686 5.36742 8.97231L6.35192 9.51265L7.79545 10.3238L8.7806 10.9319C9.2403 10.2561 9.96171 9.64809 10.7496 9.17476Z" fill="#007AFF"/>
<path fill-rule="evenodd" clip-rule="evenodd" d="M7.99244 12.2157L7.92668 12.148L6.35162 11.2698L5.16985 10.594L4.64504 10.2555L4.51351 10.1885C4.44775 10.1208 4.31687 10.1208 4.25111 10.0531C4.05447 9.98534 3.85718 9.91834 3.66054 9.85062C3.26662 9.7829 2.80693 9.85062 2.413 9.98534C2.28213 10.0531 2.1506 10.1208 2.01908 10.1885C1.82243 10.3232 1.69156 10.391 1.49427 10.594C1.36275 10.7288 1.23187 10.9313 1.10035 11.0667C0.837944 11.4045 0.706421 11.8102 0.706421 12.2157C0.706421 12.4181 0.706421 12.6883 0.772183 12.8915C0.837944 13.0939 0.903706 13.297 0.968823 13.4995C1.03459 13.7026 1.16611 13.9051 1.29763 14.0405C1.42851 14.1752 1.62579 14.3784 1.75668 14.4454C1.8882 14.5809 2.08484 14.6485 2.28213 14.7162C2.47877 14.7839 2.67541 14.851 2.87269 14.851H3.52902H4.64504H6.28586H7.33611C7.40124 13.9051 7.59851 13.0268 7.99244 12.2157Z" fill="#BD00FF"/>
<path fill-rule="evenodd" clip-rule="evenodd" d="M14.5559 6.53929V4.84993V3.83631V3.16057C14.5559 2.95744 14.4901 2.75499 14.4244 2.55186C14.3593 2.3494 14.2935 2.14628 14.162 2.01153C14.0311 1.80907 13.8996 1.67365 13.703 1.53824C13.5714 1.40349 13.3741 1.26808 13.1775 1.20037C12.9809 1.13266 12.7836 0.997912 12.587 0.997912C12.3903 0.930206 12.1273 0.930206 11.9306 0.930206C11.5367 0.930206 11.077 1.06496 10.7488 1.26808C10.5522 1.40349 10.3549 1.53824 10.224 1.67365C10.0925 1.80907 9.96161 2.01153 9.83008 2.21399C9.76435 2.3494 9.69854 2.48482 9.63345 2.55186C9.50192 2.95744 9.43619 3.36302 9.50192 3.83631C9.56773 4.03877 9.56773 4.24189 9.69854 4.44435C9.76435 4.51206 9.76435 4.64681 9.83008 4.71452L9.89589 4.84993L10.224 5.39026L10.8804 6.607L11.7991 8.16094L12.0615 8.56655C12.8493 8.29638 13.6372 8.09322 14.5559 7.95849V6.53929Z" fill="#41C700"/>
<path fill-rule="evenodd" clip-rule="evenodd" d="M18.6257 8.02602L19.0854 7.28257L19.8733 5.86337L20.3981 4.84975C20.5296 4.6473 20.5947 4.44417 20.7262 4.30876C20.7919 4.1063 20.8571 3.90384 20.9228 3.70072C20.9886 3.49826 20.9886 3.2958 20.9228 3.09268C20.9228 2.89022 20.8571 2.6871 20.7919 2.48464C20.7262 2.28152 20.5947 2.07906 20.5296 1.94365C20.3981 1.74119 20.2665 1.60577 20.1356 1.47102C20.0041 1.33561 19.8075 1.20019 19.6102 1.13315C19.2169 0.794613 18.7572 0.72757 18.3633 0.72757C18.1667 0.72757 17.9693 0.794613 17.7727 0.794613C17.5754 0.862321 17.3788 0.930031 17.1815 1.06544C17.0507 1.13315 16.9848 1.20019 16.8533 1.2679C16.5252 1.53873 16.2628 1.87594 16.1313 2.28152C16.0662 2.48464 16.0004 2.6871 16.0004 2.89022V3.22743V3.43055V4.03859V5.39008V7.21486V7.8229H16.5252C17.2473 7.89061 17.9693 7.89061 18.6257 8.02602Z" fill="#FF8400"/>
<path fill-rule="evenodd" clip-rule="evenodd" d="M9.17352 14.9867C9.43595 10.9322 12.9806 9.78317 16.3938 9.78317C19.4788 9.78317 23.1544 10.4589 23.1544 14.2432V22.3529C23.1544 23.772 23.2859 25.1912 23.6799 25.7999H19.4131C19.2815 25.3266 19.1506 24.7857 19.1506 24.313C17.8374 25.7315 15.8683 26.2725 13.9651 26.2725C11.0117 26.2725 8.71454 24.7857 8.71454 21.61C8.71454 18.0959 11.3398 17.217 13.9651 16.8791C16.5247 16.4736 18.9534 16.5413 18.9534 14.8512C18.9534 13.0271 17.7065 12.7569 16.1972 12.7569C14.5557 12.7569 13.5712 13.4327 13.3746 15.1221H9.17352V14.9867ZM18.9534 18.163C18.2312 18.7717 16.722 18.8387 15.4093 19.0418C14.0966 19.312 12.9149 19.7853 12.9149 21.3392C12.9149 22.9616 14.1618 23.3671 15.4744 23.3671C18.7567 23.3671 18.8876 20.7311 18.8876 19.7853V18.163H18.9534Z" fill="#007AFF"/>
<path fill-rule="evenodd" clip-rule="evenodd" d="M24.7953 22.5559L32.8028 13.4326H25.3865V10.1887H38.3822V13.4326L30.3748 22.5559H38.9728V25.7999H24.7953V22.5559Z" fill="#007AFF"/>
<path fill-rule="evenodd" clip-rule="evenodd" d="M43.962 19.0418C44.0935 21.7448 45.4061 23.0286 47.7691 23.0286C49.4757 23.0286 50.8534 21.9473 51.1165 21.0013H54.8578C53.676 24.7186 51.1165 26.2725 47.6375 26.2725C42.7802 26.2725 39.761 22.8938 39.761 18.0282C39.761 13.365 42.9775 9.78317 47.6375 9.78317C52.8888 9.78317 55.4484 14.2432 55.1202 19.0418H43.962ZM50.8534 16.3388C50.4602 14.1755 49.5408 13.0271 47.5066 13.0271C44.8149 13.0271 44.0278 15.1221 43.962 16.3388H50.8534Z" fill="#007AFF"/>
<path fill-rule="evenodd" clip-rule="evenodd" d="M62.2085 10.1884H65.2935V13.0267H62.2085V20.7308C62.2085 22.15 62.5367 22.5555 63.9809 22.5555C64.4399 22.5555 64.8338 22.5555 65.2935 22.4202V25.7995C64.5714 25.9343 63.6527 25.9343 62.7991 25.9343C60.2395 25.9343 57.9418 25.3262 57.9418 22.2176V13.0938H55.3822V10.1884H57.9418V5.52515H62.2085V10.1884Z" fill="#007AFF"/>
</svg>
