<svg width="35" height="35" viewBox="0 0 35 35" fill="none" xmlns="http://www.w3.org/2000/svg">
<path d="M13.0964 8.69265C13.0964 7.88196 13.7535 7.22476 14.5642 7.22476H24.8395C25.6502 7.22476 26.3074 7.88196 26.3074 8.69265C26.3074 9.50335 25.6502 10.1605 24.8395 10.1605H14.5642C13.7536 10.1605 13.0964 9.50335 13.0964 8.69265Z" fill="#121212"/>
<path d="M8.69268 26.3073C8.69268 25.4966 9.34988 24.8394 10.1606 24.8394H20.4358C21.2465 24.8394 21.9037 25.4966 21.9037 26.3073C21.9037 27.118 21.2465 27.7752 20.4358 27.7752H10.1606C9.34988 27.7752 8.69268 27.118 8.69268 26.3073Z" fill="#121212"/>
<path d="M7.22479 17.5C7.22479 16.6893 7.88199 16.0321 8.69268 16.0321H26.3074C27.1181 16.0321 27.7753 16.6893 27.7753 17.5C27.7753 18.3107 27.1181 18.9679 26.3074 18.9679H8.69268C7.88199 18.9679 7.22479 18.3107 7.22479 17.5Z" fill="#121212"/>
</svg>
